<?xml version="1.0" standalone="no"?>
<!DOCTYPE svg PUBLIC "-//W3C//DTD SVG 20010904//EN"
 "http://www.w3.org/TR/2001/REC-SVG-20010904/DTD/svg10.dtd">
<svg version="1.0" xmlns="http://www.w3.org/2000/svg"
 width="67.000000pt" height="67.000000pt" viewBox="0 0 67.000000 67.000000"
 preserveAspectRatio="xMidYMid meet">

<g transform="translate(0.000000,67.000000) scale(0.100000,-0.100000)"
fill="#000000" stroke="none">
<path d="M203 633 c-25 -13 -33 -23 -33 -43 0 -34 -47 -80 -83 -80 -21 0 -30
-7 -42 -36 -19 -46 -19 -73 0 -80 21 -8 21 -97 0 -114 -19 -16 -19 -31 2 -75
13 -26 23 -35 42 -35 34 0 81 -47 81 -81 0 -22 7 -29 46 -44 44 -17 46 -17 68
4 29 27 83 28 111 1 l22 -21 47 21 c40 17 46 23 41 41 -9 29 48 89 85 89 22 0
30 7 43 42 16 40 16 43 -3 63 -26 28 -27 91 -1 119 18 20 18 22 0 64 -15 35
-23 42 -47 42 -35 0 -79 44 -84 84 -2 24 -10 32 -45 45 -39 14 -44 13 -61 -2
-24 -22 -107 -24 -116 -2 -7 19 -32 18 -73 -2z m203 -142 c55 -25 87 -71 92
-136 8 -103 -62 -180 -163 -180 -102 1 -171 78 -163 180 5 65 37 111 92 136
52 23 90 23 142 0z"/>
<path d="M270 468 c-134 -70 -87 -271 64 -271 84 0 146 61 146 144 0 59 -30
105 -83 129 -54 25 -73 25 -127 -2z m100 -38 c12 -22 0 -54 -22 -64 -7 -3 -4
-5 7 -5 11 1 25 1 31 0 16 -1 36 -54 32 -83 -3 -21 -9 -23 -63 -26 -85 -4
-105 2 -105 37 0 40 36 83 64 76 18 -5 19 -5 4 5 -18 11 -25 60 -11 73 14 14
53 6 63 -13z"/>
</g>
</svg>
